<svg id="b1d9a1d2-f0d0-4b38-854d-f893d20fb4b0" data-name="Layer 1" xmlns="http://www.w3.org/2000/svg" viewBox="0 0 840.7 767.2">
    <path d="M119.7,426.1a636.3,636.3,0,0,0,80.9,200.3A253.5,253.5,0,0,1,165.9,611a263.8,263.8,0,0,1-30.8-19.2S162,796,296.9,911.5a456,456,0,0,1-84.8-223.4A204.7,204.7,0,0,0,320,711.2a299.7,299.7,0,0,1-73.2-123.3A296.6,296.6,0,0,1,235.2,480Z" 
    transform="translate(-119.7 -156.4)" 
    style="fill:#363435;fill-rule:evenodd"/>
    <path d="M960.3,426.7a640.5,640.5,0,0,1-19.2,69.4,645.8,645.8,0,0,1-61.7,131,280.7,280.7,0,0,0,34.7-15.4,277.5,277.5,0,0,0,30.8-19.3S918,796.6,783.1,912.2a456.7,456.7,0,0,0,84.8-223.5,208,208,0,0,1-54,19.3,203.2,203.2,0,0,1-53.9,3.8,296.2,296.2,0,0,0,84.8-231.1Z" 
    transform="translate(-119.7 -156.4)" style="fill:#363435;fill-rule:evenodd"/>
    <polygon points="451.4 195.6 461.7 175 444.5 165.9 453.7 154.4 465.1 17.2 421.7 0 420.5 0 377 17.2 388.5 154.4 397.6 165.9 380.5 175 390.8 195.6 451.4 195.6" style="fill:#363435"/>
    <path d="M469.9,888.3l-.8-3.8c-23-103.5-96-135.1-96.8-135.4l-4.9-2.1-.7-5.2L349.5,602.2l-24.1-21.5,15.2-119.4,23.1,6.4c15.4-26.2,42.2-66.8,70.3-85.5,42-28,101.6-44.8,104.1-45.5l2.5-.6,2.4.6c2.5.7,62.2,17.5,104.1,45.5,28.1,18.7,55,59.3,70.4,85.5l23-6.4,15.2,119.4-24.1,21.5L713.7,747.1l-4.9,2c-.7.3-73.8,31.9-96.8,135.4l-.8,3.8-58.8,35.3,7.9-44.1H520.8l7.9,44.1Z" transform="translate(-119.7 -156.4)" style="fill:#363435"/>
    <polygon points="254.6 399.7 375.1 713.9 463.6 713.9 581.1 367.6 254.6 399.7" style="fill:#363435"/><path d="M732.8,472.9l-19.7,5.5c-14.3-25.1-42.3-69.4-71-88.6-41.3-27.5-101.5-44.2-101.5-44.2s-60.3,16.7-101.5,44.2c-28.8,19.2-56.8,63.5-71.1,88.6l-19.6-5.5L335.1,577l23.1,20.6,17.6,143S453.6,772.7,478,882.5l38.2,22.9L473.4,665.9s-59.4-29-62.5-93.1l90,26L522.3,730l18.3,9.1,18.3-9.1,21.3-131.2,90-26c-3,64.1-62.5,93.1-62.5,93.1L565,905.4l38.1-22.9c24.4-109.8,102.2-141.9,102.2-141.9l17.6-143L746,577Z" transform="translate(-119.7 -156.4)" style="fill:#e9a13c"/><path d="M533.1,340.4s-61.6,75.1-17.3,200l212.8-48.9s-47.9-79.1-72.1-95.2S579.5,346.4,533.1,340.4Z" transform="translate(-119.7 -156.4)" style="fill:#363435"/><path d="M730.5,469.9,542.1,531.7l-1.5,207.4,25.9,137.3-2.7,32.4,39.3-24s38.5-115,104.3-140.2l21.2-146.4,22.3-20.6L737.7,470.1Z" transform="translate(-119.7 -156.4)" style="fill:#363435"/><path d="M410.9,572.8S388,626.2,461.2,673.5l54.2,231.4.8.5L473.4,665.9S414,636.9,410.9,572.8Z" transform="translate(-119.7 -156.4)" style="fill:#f9eb2e"/><path d="M670.7,572.8s22.8,53.4-50.4,100.7L566.2,904.9l-.8.5,42.7-239.5S667.6,636.9,670.7,572.8Z" transform="translate(-119.7 -156.4)" style="fill:#c66f06"/><path d="M706.8,656l-11.4,77.8s-58.4,40-77.8,94.9c0,0,25.2-68.6,53.8-97.2Z" transform="translate(-119.7 -156.4)" style="fill:#c66f06"/><path d="M381.2,656l11.4,77.8s58.3,40,77.8,94.9c0,0-25.2-68.6-53.8-97.2Z" transform="translate(-119.7 -156.4)" style="fill:#f9eb2e"/><path d="M554.7,360.8s72.1,32.1,92.6,46.9,48.1,67.5,48.1,67.5l-48.1,19.5,21.8-28.6S663.4,416.9,554.7,360.8Z" transform="translate(-119.7 -156.4)" style="fill:#c66f06"/><path d="M373.9,468.4l-5.9,10-19.6-5.5,153.7,63L373.9,468.4Z" transform="translate(-119.7 -156.4)" style="fill:#f9eb2e"/><path d="M389.9,480.9s35.5-54.9,46.9-67.5,51.5-33.1,51.5-33.1-41.2,59.5-43.5,67.5,14.9,67.5,14.9,67.5Z" transform="translate(-119.7 -156.4)" style="fill:#f9eb2e"/><polygon points="215.4 420.6 290.5 488.1 240.1 463.7 233.3 440.8 215.4 420.6" style="fill:#363435"/><polygon points="432.1 12.2 458.5 20.8 448.7 150.6 431.6 170.7 444.2 148.3 452.7 24.2 432.1 12.2" style="fill:#c66f06"/></svg>